<svg xmlns="http://www.w3.org/2000/svg" viewBox="0 0 800 500" width="800" height="500" role="img" aria-hidden="true">
<defs>
<radialGradient id="g6" cx="50%" cy="45%" r="70%">
<stop offset="0%" stop-color="#141024"/><stop offset="100%" stop-color="#07070E"/>
</radialGradient>
<filter id="b6" x="-30%" y="-30%" width="160%" height="160%">
<feGaussianBlur stdDeviation="7"/>
</filter>
</defs>
<rect width="800" height="500" fill="url(#g6)"/>
<rect x="60" y="70" width="150" height="46" rx="6" fill="#7C3AED" fill-opacity="0.16" stroke="#8B5CF6" stroke-opacity=".35"/><line x1="76" y1="87" x2="186" y2="87" stroke="#A78BFA" stroke-opacity=".45"/><line x1="76" y1="99" x2="156" y2="99" stroke="#A78BFA" stroke-opacity=".45"/><path d="M 210 116 q 20 26, 0 40" fill="none" stroke="#8B5CF6" stroke-opacity=".3" stroke-dasharray="3 6"/><rect x="530" y="154" width="210" height="46" rx="6" fill="#7C3AED" fill-opacity="0.22" stroke="#8B5CF6" stroke-opacity=".35"/><line x1="546" y1="171" x2="716" y2="171" stroke="#A78BFA" stroke-opacity=".45"/><line x1="546" y1="183" x2="686" y2="183" stroke="#A78BFA" stroke-opacity=".45"/><path d="M 530 200 q -20 26, 0 40" fill="none" stroke="#8B5CF6" stroke-opacity=".3" stroke-dasharray="3 6"/><rect x="60" y="238" width="270" height="46" rx="6" fill="#7C3AED" fill-opacity="0.28" stroke="#8B5CF6" stroke-opacity=".35"/><line x1="76" y1="255" x2="306" y2="255" stroke="#A78BFA" stroke-opacity=".45"/><line x1="76" y1="267" x2="276" y2="267" stroke="#A78BFA" stroke-opacity=".45"/><path d="M 330 284 q 20 26, 0 40" fill="none" stroke="#8B5CF6" stroke-opacity=".3" stroke-dasharray="3 6"/><rect x="590" y="322" width="150" height="46" rx="6" fill="#7C3AED" fill-opacity="0.34" stroke="#8B5CF6" stroke-opacity=".35"/><line x1="606" y1="339" x2="716" y2="339" stroke="#A78BFA" stroke-opacity=".45"/><line x1="606" y1="351" x2="686" y2="351" stroke="#A78BFA" stroke-opacity=".45"/><path d="M 590 368 q -20 26, 0 40" fill="none" stroke="#8B5CF6" stroke-opacity=".3" stroke-dasharray="3 6"/><rect x="60" y="406" width="210" height="46" rx="6" fill="#7C3AED" fill-opacity="0.40" stroke="#8B5CF6" stroke-opacity=".35"/><line x1="76" y1="423" x2="246" y2="423" stroke="#A78BFA" stroke-opacity=".45"/><line x1="76" y1="435" x2="216" y2="435" stroke="#A78BFA" stroke-opacity=".45"/></svg>
